<?xml version="1.0" standalone="no"?><!DOCTYPE svg PUBLIC "-//W3C//DTD SVG 1.1//EN" "http://www.w3.org/Graphics/SVG/1.1/DTD/svg11.dtd"><svg t="1784147209275" class="icon" viewBox="0 0 1024 1024" version="1.1" xmlns="http://www.w3.org/2000/svg" p-id="6859" xmlns:xlink="http://www.w3.org/1999/xlink" width="200" height="200"><path d="M208.979592 1024h606.040816c115.461224 0 208.979592-93.518367 208.979592-208.979592V208.979592C1024 93.518367 930.481633 0 815.020408 0H208.979592C93.518367 0 0 93.518367 0 208.979592v606.040816c0 115.461224 93.518367 208.979592 208.979592 208.979592z" fill="#C5D8DE" p-id="6860"></path><path d="M208.979592 982.204082h606.040816c92.36898 0 167.183673-74.814694 167.183674-167.183674V208.979592c0-92.36898-74.814694-167.183673-167.183674-167.183674H208.979592C116.610612 41.795918 41.795918 116.610612 41.795918 208.979592v606.040816c0 92.36898 74.814694 167.183673 167.183674 167.183674z" fill="#030000" p-id="6861"></path><path d="M208.979592 919.510204h606.040816c57.678367 0 104.489796-46.811429 104.489796-104.489796V208.979592c0-57.678367-46.811429-104.489796-104.489796-104.489796H208.979592c-57.678367 0-104.489796 46.811429-104.489796 104.489796v606.040816c0 57.678367 46.811429 104.489796 104.489796 104.489796z" fill="#262626" p-id="6862"></path><path d="M167.183673 292.571429l94.040817-47.020409-94.040817-47.020408v-31.346939l125.387756 62.693878v31.346939l-125.387756 62.693877z m303.020409 94.040816H323.918367v-31.346939h146.285715z" fill="#FFFFFF" p-id="6863"></path></svg>